<svg width="127" height="40" viewBox="0 0 127 40" xmlns="http://www.w3.org/2000/svg"><path d="M116.853 10.63a9.245 9.245 0 00-5.836 2.089l4.651-6.865-8.594 5.831 2.12-10.176-5.711 8.693L101.521 0l-1.946 10.201-5.702-8.664 2.104 10.152-8.58-5.802L92.04 12.7a9.266 9.266 0 00-5.844-2.066c-3.198 0-5.969 1.593-7.692 4.003-1.702-2.41-4.487-4.003-7.682-4.003a9.4 9.4 0 00-7.677 4.003 9.398 9.398 0 00-7.675-4.003c-3.168 0-5.969 1.593-7.685 4.003a9.35 9.35 0 00-7.658-4.003c-3.172 0-5.975 1.593-7.7 4.003a9.341 9.341 0 00-7.659-4.003c-3.171 0-5.966 1.593-7.692 4.003a9.336 9.336 0 00-7.668-4.003c-5.158-.004-9.369 4.21-9.369 9.38 0 5.172 4.211 9.383 9.37 9.383a9.31 9.31 0 007.668-3.993c1.728 2.416 4.525 3.993 7.694 3.993a9.312 9.312 0 007.658-3.993c1.726 2.416 4.533 3.993 7.702 3.993a9.322 9.322 0 007.66-3.993 9.38 9.38 0 0015.358 0 9.38 9.38 0 0015.36 0c1.723 2.418 4.493 3.993 7.691 3.993 2.19 0 4.203-.76 5.845-2.004l-4.642 6.746L96 28.321l-2.106 10.162 5.704-8.671L101.535 40l1.973-10.19 5.702 8.655-2.121-10.163 8.596 5.829-4.576-6.696a9.426 9.426 0 005.744 1.962c5.214 0 9.415-4.21 9.415-9.38 0-5.171-4.198-9.387-9.415-9.387zm.058 17.471c-3.005 0-5.278-1.478-7.882-3.172-.479-.312-.97-.631-1.478-.95l3.998 5.997-6.177-4.275 1.901 7.602-4.276-6.653-1.42 7.601-1.43-7.601-4.276 6.653 1.9-7.602-6.177 4.275 3.957-5.934c-.467.288-.92.576-1.363.858-2.683 1.706-5.035 3.2-8.011 3.2a8.1 8.1 0 01-7.684-5.545 8.095 8.095 0 01-15.366 0 8.096 8.096 0 01-15.367 0 8.096 8.096 0 01-15.367 0 8.096 8.096 0 01-15.367 0 8.101 8.101 0 110-5.113 8.096 8.096 0 0115.367 0 8.096 8.096 0 0115.367 0 8.096 8.096 0 0115.367 0 8.095 8.095 0 0115.366 0 8.1 8.1 0 017.684-5.546c3.033 0 5.273 1.439 7.865 3.103.488.313.988.635 1.509.956l-3.957-5.934 6.178 4.276-1.901-7.602 4.276 6.653 1.422-7.602 1.436 7.602 4.276-6.652-1.901 7.602 6.177-4.277-3.918 5.88c.322-.199.641-.397.956-.594l.002-.001c2.872-1.791 5.462-3.406 8.321-3.406A8.104 8.104 0 01125.02 20a8.104 8.104 0 01-8.102 8.102l-.007-.002zM10.575 21.673a.691.691 0 01-.228.53c-.148.133-.34.167-.555.167a1.856 1.856 0 01-1.455-.664c-.406-.457-.604-1.012-.604-1.69 0-.679.206-1.278.65-1.75.48-.512 1.114-.773 1.927-.773.397-.003.793.049 1.176.155.283.066.56.157.825.273l.295-1.127c-.72-.264-1.128-.396-1.21-.413-.535-.134-1.18-.191-1.998-.191-1.247 0-2.271.364-3.083 1.11-.792.725-1.17 1.63-1.17 2.706 0 1.052.405 1.949 1.175 2.695a4.067 4.067 0 002.856 1.103 5.676 5.676 0 001.173-.143c.96-.2 1.577-.298 1.82-.298.283-.012.564.063.804.214v-3.445h-2.398v1.54zm9.97 1.906l3.351-7.16h1.718l3.366 7.16h-2.636l-.534-1.16H22.53l-.536 1.16h-1.447zm3.617-4.663l-1.025 2.21h2.055l-1.03-2.21zm15.942.644l-2.209-3.142H35.89v7.16h1.326v-3.993l1.558 2.269h1.331l1.823-2.6v4.324h2.39v-7.16h-1.983l-2.23 3.142zm18.276 4.018h-5.897v-7.16h5.897v1.302h-3.478v1.326h2.405v1.31h-2.405v1.923h3.478v1.3zm13.151-4.557c-.49-.181-.839-.358-1.057-.515-.218-.157-.301-.31-.301-.437a.386.386 0 01.184-.34c.165-.088.35-.131.536-.126.419 0 .835.06 1.238.175.379.134.742.31 1.083.523l.646-.972a5.424 5.424 0 00-1.412-.762 5.13 5.13 0 00-1.923-.37c-.867 0-1.576.223-2.126.67-.518.414-.787.93-.787 1.543 0 .497.176.92.541 1.306.366.387.9.734 1.65 1.006 1.12.43 1.682.781 1.682 1.053a.475.475 0 01-.244.428c-.183.133-.406.167-.713.167-.472 0-.903-.06-1.29-.226a4.255 4.255 0 01-1.133-.689l-.723.88c.412.426.9.772 1.438 1.02a4.576 4.576 0 002.023.449c1.01 0 1.823-.226 2.446-.689.58-.43.861-.928.861-1.507a1.949 1.949 0 00-.541-1.375c-.42-.467-1.1-.898-2.078-1.212zm15.864-2.603c.847 0 1.575.223 2.189.687.597.466.888 1.03.888 1.685s-.29 1.226-.888 1.69c-.614.47-1.342.712-2.189.712H85.73v2.387h-2.422v-7.16h4.087zm-.71 3.433c.362.011.718-.1 1.009-.318.274-.198.414-.436.412-.742 0-.268-.14-.532-.414-.747a1.728 1.728 0 00-1.01-.324h-.952v2.13h.954zm17.734-2.555c-.754-.737-1.697-1.1-2.835-1.1-1.1 0-2.045.364-2.832 1.1-.764.748-1.153 1.652-1.153 2.708 0 1.056.387 1.95 1.153 2.695a4.034 4.034 0 002.832 1.103c1.137 0 2.081-.365 2.835-1.103.806-.746 1.186-1.643 1.186-2.695 0-1.052-.399-1.96-1.186-2.708zm-1.822 4.393c-.29.474-.615.681-.996.681-.38 0-.727-.201-1.018-.663a3.602 3.602 0 010-3.383c.309-.48.638-.722 1.018-.722.381 0 .74.243 1.013.696.289.471.43 1.035.43 1.702 0 .66-.14 1.234-.447 1.689zm13.104-3.969h-2.346v-1.302h7.055v1.302h-2.336v5.858h-2.373V17.72z" fill="#FFF" fill-rule="evenodd"/></svg>