<svg width="257" height="40" viewBox="0 0 257 40" xmlns="http://www.w3.org/2000/svg"><path d="M144.941 5.614c0-.598.316-.904.957-.904h6.053V0h-6.053a5.398 5.398 0 00-3.985 1.641 5.386 5.386 0 00-1.618 3.972v3.072h-3.761v4.713h3.761v17.284h4.646V13.399h4.723V8.686h-4.723V5.614zm-34.514 7.307a1.154 1.154 0 01-.847.354h-2.282a1.163 1.163 0 01-.852-.354 1.13 1.13 0 01-.344-.847V9.786a1.173 1.173 0 011.196-1.196h2.282a1.19 1.19 0 011.201 1.196v2.292a1.126 1.126 0 01-.354.843zM74.688 30.683v-16.38a.804.804 0 00-.909-.909h-6.101a.807.807 0 00-.876.542.804.804 0 00-.033.367v16.38h-4.713v-16.38a.805.805 0 00-.225-.676.8.8 0 00-.675-.228h-6.11a.801.801 0 00-.9.91v16.374h-4.723V8.672h24.351a5.371 5.371 0 013.924 1.698 5.188 5.188 0 011.689 3.934v16.379h-4.699zm-43.993 0a5.52 5.52 0 01-5.618-5.618v-1.67c0-1.589.885-2.67 2.627-3.259l14.719-4.708v-.632c0-.928-.321-1.402-.957-1.402H30.695a.804.804 0 00-.905.91v2.354h-4.713v-2.355a5.57 5.57 0 015.618-5.618h10.766a5.361 5.361 0 013.976 1.637 5.399 5.399 0 011.646 3.981v16.38H30.695zm11.728-10.527l-10.709 3.191c-1.282.34-1.914.957-1.914 1.775a.797.797 0 00.538.872.8.8 0 00.366.033h10.767a.85.85 0 00.919-.572.856.856 0 00.038-.385l-.005-4.915zm-21.16 18.202a5.358 5.358 0 01-3.966 1.64H5.626v-4.717h11.671c.641 0 .957-.297.957-.895v-5.1c-.029.932-.814 1.396-2.35 1.396H6.526a5.508 5.508 0 01-5.215-3.452 5.516 5.516 0 01-.398-2.165V14.303a5.391 5.391 0 011.617-3.98 5.436 5.436 0 013.996-1.637h9.373c1.536 0 2.321.478 2.35 1.397V8.686h4.675V34.38a5.304 5.304 0 01-1.661 3.977zm-3.014-24.05c0-.603-.311-.909-.957-.909H6.526a.804.804 0 00-.9.91v10.756c0 .641.306.957.9.957h10.771a.843.843 0 00.957-.957l-.005-10.757zm81.937-5.222a5.522 5.522 0 00-2.166-.4H81.631v16.379a5.621 5.621 0 001.646 3.978 5.612 5.612 0 003.981 1.64H98.01a5.572 5.572 0 003.991-1.628 5.557 5.557 0 001.631-3.99V22.71h-4.713v2.34a.799.799 0 01-.229.678.804.804 0 01-.68.226H87.253c-.636 0-.957-.47-.957-1.397v-.632l14.719-4.699c1.742-.584 2.627-1.665 2.627-3.258v-1.666a5.523 5.523 0 00-3.456-5.217zM97 16.012l-10.704 3.2.005-4.928a.856.856 0 01.571-.92.852.852 0 01.386-.037h10.747a.803.803 0 01.909.9c0 .828-.626 1.44-1.914 1.785zM239.633 9.09a5.536 5.536 0 00-2.164-.404H221.08v16.379a5.61 5.61 0 005.618 5.618h10.766a5.588 5.588 0 003.987-1.633 5.586 5.586 0 001.636-3.985v-2.354h-4.714v2.34a.799.799 0 01-.229.678.8.8 0 01-.68.226h-10.766c-.636 0-.957-.469-.957-1.397v-.632l14.719-4.699c1.737-.584 2.632-1.665 2.632-3.258v-1.665a5.549 5.549 0 00-1.623-3.999 5.534 5.534 0 00-1.836-1.215zm-3.178 6.922l-10.714 3.2-.005-4.928a.856.856 0 01.572-.92.85.85 0 01.385-.037h10.767a.805.805 0 01.909.9c0 .828-.632 1.44-1.914 1.785zm-130.401-.364v15.035h4.718V15.648h-4.718zm24.786 15.035v-16.38c0-.603-.321-.909-.957-.909h-10.781a.8.8 0 00-.875.542.805.805 0 00-.034.367v16.38h-4.713V8.67h16.379a5.593 5.593 0 015.194 3.465 5.6 5.6 0 01.42 2.153v16.393h-4.633zm120.027-17.284c-.646 0-.957.306-.957.905v16.422h-4.665V14.299a5.555 5.555 0 015.613-5.613h6.053v4.713h-6.044zm-71.234.904c0-.598.316-.904.957-.904h6.058V8.686h-6.063a5.447 5.447 0 00-3.995 1.636 5.381 5.381 0 00-1.618 3.977v16.427h4.661V14.303zm-8.532 14.767a5.432 5.432 0 01-3.981 1.613h-10.762a5.526 5.526 0 01-5.216-3.453 5.516 5.516 0 01-.401-2.165V14.303a5.561 5.561 0 015.617-5.617h10.762a5.595 5.595 0 015.622 5.617v10.762a5.478 5.478 0 01-1.641 4.005zm-3.015-14.762c0-.603-.32-.909-.957-.909h-10.771a.8.8 0 00-.904.91v10.756c0 .641.297.957.904.957h10.762a.852.852 0 00.957-.957l.009-10.757zm46.051-.005v16.38h4.709V14.289a5.19 5.19 0 00-1.699-3.919 5.376 5.376 0 00-3.914-1.698h-24.356v22.01h4.718V14.305a.796.796 0 01.895-.91h6.139a.806.806 0 01.91.91v16.379h4.703v-16.38a.812.812 0 01.226-.68.813.813 0 01.679-.229h6.091a.801.801 0 01.899.91z" fill="#FFF" fill-rule="evenodd"/></svg>