<svg width="100" height="30" viewBox="0 0 100 30" xmlns="http://www.w3.org/2000/svg"><g fill="none" fill-rule="evenodd"><path d="M53.49 17.656v-5.399l14.506.004a2.67 2.67 0 012.673 2.66v6.417c0 3.302-2.645 6.035-6.006 6.037l-9.287.007c-6.882 0-12.45-5.545-12.45-12.397 0-6.847 5.602-12.397 12.461-12.397h14.378v5.696H55.384c-3.707 0-6.752 3-6.752 6.7 0 3.696 3 6.698 6.742 6.698h9.594v-4.026H53.49zM41.04 2.557l.003 1.834v23.001h-2.991a2.654 2.654 0 01-2.656-2.643V6.797l.001-4.24h5.643zm56.224.014a2.646 2.646 0 012.647 2.644v16.463c0 3.306-2.689 5.986-6.001 5.986h-.102c-2.17 0-4.063-1.076-5.117-2.841L79.142 8.105a.361.361 0 00-.335-.189c-.144 0-.27.08-.336.197a.335.335 0 00-.057.176l.002 19.103h-3.005a2.65 2.65 0 01-2.651-2.643V8.29a5.991 5.991 0 015.997-5.986h.102c2.17 0 4.106 1.16 5.161 2.926l9.491 16.61c.119.155.226.21.347.21a.388.388 0 00.335-.19c.03-.046.041-.1.045-.157l-.003-19.13h3.029z" fill="#FFF"/><path d="M7.009 9.558c-1.48.162-2.831.383-4.024.656a13.265 13.265 0 017.516-7.504 35.653 35.653 0 00-.657 4.018 9.99 9.99 0 00-2.835 2.83zm13.732-2.863c-.172-1.47-.4-2.81-.676-3.994a13.272 13.272 0 017.544 7.512 35.746 35.746 0 00-4.025-.655 9.986 9.986 0 00-2.839-2.832.314.314 0 00-.004-.031zM9.844 23.272c.163 1.477.384 2.826.657 4.017a13.27 13.27 0 01-7.525-7.525c1.175.271 2.509.496 3.999.671l.032.004a10.005 10.005 0 002.837 2.833zm13.774-2.837a36.83 36.83 0 003.998-.67 13.262 13.262 0 01-7.551 7.534c.276-1.185.504-2.524.676-3.993l.005-.032a10 10 0 002.84-2.835l.032-.004zm6.706-7.887v4.876c-2.31 1.067-5.752 1.493-6.915 1.627-.28.053-.542.078-.795.078L18.912 15l3.702-4.129c.213 0 .437.021.685.063 1.19.127 4.691.536 7.025 1.615zM7.98 10.87L11.681 15 7.98 19.13a4.26 4.26 0 01-.796-.079c-1.162-.135-4.606-.56-6.916-1.628V12.55c2.335-1.08 5.836-1.489 7.025-1.616.25-.042.474-.063.687-.063zm3.18 11.434l4.137-3.694 4.137 3.694c0 .253-.026.515-.079.795-.135 1.159-.563 4.596-1.631 6.901H12.84c-1.081-2.33-1.491-5.825-1.618-7.012a4.067 4.067 0 01-.062-.684zM12.84 0h4.884c1.068 2.307 1.496 5.743 1.631 6.903.053.28.079.54.079.793l-4.137 3.696-4.137-3.696c0-.211.02-.436.062-.683.127-1.188.537-4.683 1.618-7.013z" fill="#BF1313"/></g></svg>