<svg viewBox="0 0 37 25" xmlns="http://www.w3.org/2000/svg">
  <path d="M9.85 0H.78C.26 0 0 .27 0 .82v23.335c0 .54.26.82.78.82h3.156c.52 0 .78-.28.78-.82v-7.342c0-.28.149-.42.449-.42H9.85a5.994 5.994 0 004.485-1.648 6.463 6.463 0 001.649-4.685V6.334a6.453 6.453 0 00-1.599-4.686A5.994 5.994 0 009.85 0zm1.369 9.83a2.587 2.587 0 01-.48 1.728 2.218 2.218 0 01-1.678.52H5.125c-.27 0-.41-.14-.41-.43V4.655a.37.37 0 01.41-.42H9.06a2.218 2.218 0 011.678.52c.364.514.534 1.14.48 1.768V9.83zm21.807-.84h3.117c.55 0 .82-.289.82-.858V6.334a6.453 6.453 0 00-1.609-4.686A6.064 6.064 0 0030.829 0h-4.046a5.994 5.994 0 00-4.526 1.628 6.443 6.443 0 00-1.608 4.706V18.64a6.443 6.443 0 001.608 4.705 6.064 6.064 0 004.526 1.629h4.046a6.064 6.064 0 004.525-1.649 6.473 6.473 0 001.608-4.685v-1.828a.74.74 0 00-.819-.85h-3.117c-.52 0-.779.29-.779.85v1.598a2.497 2.497 0 01-.51 1.768 2.258 2.258 0 01-1.688.52h-2.517a2.228 2.228 0 01-1.658-.52 2.547 2.547 0 01-.5-1.768V6.563a2.547 2.547 0 01.5-1.768 2.228 2.228 0 011.658-.52h2.517c.61-.063 1.22.125 1.689.52.388.503.57 1.136.51 1.768v1.589c0 .57.259.839.778.839z" fill-rule="nonzero"/>
</svg>
