<svg viewBox="0 0 117 26" xmlns="http://www.w3.org/2000/svg">
  <path fill-rule="evenodd" clip-rule="evenodd" d="M43.985 21.944h3.17a.126.126 0 0 0 .08-.12V17.23c0-1.47.83-2.488 2.041-2.488h13.06c2.944 0 4.37-1.816 4.37-4.195 0-2.131-1.167-3.8-3.562-4.104H43.926a.097.097 0 0 1-.005.01c-.005.009-.01.016-.01.027v1.434c0 .073.037.11.109.11h17.214c1.463 0 2.15 1.053 2.15 2.523 0 1.471-.687 2.524-2.15 2.524h-13.62c-2.113 0-3.702 1.799-3.702 4.159v4.594c0 .06.025.105.073.12zm37.099-4.188v-7.209c0-1.47.686-2.523 2.15-2.523h9.03c.056 0 .109-.055.109-.11V6.48a.098.098 0 0 0-.008-.037H81.323c-2.393.305-3.562 1.973-3.562 4.104v7.21c0 1.47-.706 2.523-2.15 2.523h-9.537c-.054 0-.108.037-.108.11v1.434c0 .06.037.105.08.12h10.826c2.823-.074 4.212-1.876 4.212-4.188zm28.576 2.525H92.32c-.814 0-1.228-.237-1.373-.564-.18-.381.073-.89.795-1.343L110.42 6.843a3.46 3.46 0 0 1 .916-.4h.905c.534.181.851.726.851 1.58v10.478c0 .054.056.109.109.109h3.106c.073 0 .109.054.109.109v1.453c0 .054-.036.109-.109.109H113.2c-.053 0-.109.054-.109.109v1.434c0 .073-.052.109-.108.109h-3.125c-.053 0-.109-.036-.109-.109v-1.47c0-.037-.036-.073-.089-.073zm-.163-10.877l-14.468 8.952c-.092.054-.128.109-.108.181.016.037.072.073.197.073h14.542c.053 0 .109-.054.109-.109V9.55c0-.2-.181-.218-.272-.145zM12.543.656c1.41.263 2.794.638 4.172 1.03.788.228 1.575.465 2.356.718 1.227.39 2.449.833 3.56 1.493.498.302.976.644 1.385 1.06.442.433.805.946 1.07 1.505.485 1.012.651 2.142.7 3.254.023.725.022 1.457-.113 2.173-.113.622-.313 1.235-.646 1.776-.294.477-.702.89-1.198 1.156a3.168 3.168 0 0 1-1.56.368c-.818.008-1.612-.253-2.346-.594-.009-1.51-.007-3.02-.006-4.529V7.268c-.002-.101 0-.203 0-.304.002-.342.004-.684-.065-1.02-.062-.338-.2-.678-.465-.907a1.353 1.353 0 0 0-.632-.297.648.648 0 0 0-.622.24c-.239.298-.301.694-.312 1.064v8.223c0 3.796 0 7.592-.002 11.389a5863.57 5863.57 0 0 1-5.275-1.674c-.002-7.776-.002-15.551 0-23.327zM7.565 16.16h.001c1.316-.469 2.632-.937 3.95-1.401.002.53.001 1.059.001 1.589V17.566c.001.087.002.174-.009.26-1.114.395-2.226.795-3.339 1.194h-.002l-2.092.75c-.251.095-.509.202-.702.394-.09.09-.164.223-.115.351.062.152.217.235.36.297.397.162.832.185 1.255.204a7.047 7.047 0 0 0 1.408-.144 5.77 5.77 0 0 0 .91-.279l.585-.212h.001c.579-.21 1.158-.42 1.738-.627.003.478.003.957.002 1.436a299.834 299.834 0 0 0 0 .997c.001.104.002.207-.008.31-.952.17-1.915.287-2.883.302a17.208 17.208 0 0 1-5.752-.867c-.607-.176-1.21-.41-1.717-.795-.279-.216-.528-.488-.655-.822a1.133 1.133 0 0 1 .034-.883c.127-.272.35-.487.596-.654.57-.393 1.196-.692 1.832-.96.384-.163.778-.302 1.171-.44.169-.059.337-.118.504-.179.976-.345 1.95-.692 2.926-1.039zm16.945-.074c-.475.016-.95.033-1.424.088-1.449.166-2.888.46-4.266.943l-.001 2.017v1.153c1.058-.37 2.115-.742 3.172-1.115l2.539-.893c.633-.213 1.306-.296 1.972-.3.426.012.862.042 1.262.2.141.062.295.144.359.292.061.169-.062.326-.187.424-.242.194-.536.296-.827.396a9.521 9.521 0 0 0-.23.083l-.807.287c-2.405.858-4.81 1.716-7.214 2.572-.042.008-.04.047-.039.084V25.303a20295.355 20295.355 0 0 1 10.973-3.94c.435-.155.872-.31 1.284-.52.516-.261 1.03-.56 1.419-.996.204-.233.347-.535.33-.85-.003-.387-.24-.725-.517-.977-.459-.412-1.032-.666-1.605-.875-.149-.047-.295-.1-.44-.152a11.012 11.012 0 0 0-.518-.176c-1.645-.516-3.373-.73-5.093-.736l-.142.005z"/>
</svg>
