<svg viewBox="0 0 31 26" xmlns="http://www.w3.org/2000/svg">
  <path d="M10.193 5.934l-.006.012c5.674-.768 9.59.574 12.134 2.18a.59.59 0 01.246.692l-.868 2.597a.6.6 0 01-.598.41c-3.429-.182-5.967.604-7.801 1.67-.393.229-.88.563-1.313 1.026a.359.359 0 01-.586-.105c-.416-.944-1.167-2.667-1.167-2.667a.599.599 0 01.235-.745 15.547 15.547 0 015.562-2.069c-3.393-.486-6.67.346-8.839 1.137a.594.594 0 01-.75-.316L4.549 5.495a.588.588 0 01.2-.727c8.967-6.313 17.09-3.646 20.514-1.976a.6.6 0 01.305.727l-.81 2.433a.477.477 0 01-.661.275c-2.773-1.354-7.966-2.972-13.904-.293zM8.728 25.775h-.739a.21.21 0 01-.21-.211v-4.285H5.96a.21.21 0 01-.21-.21v-.663a.21.21 0 01.21-.211h4.795a.21.21 0 01.211.21v.663a.21.21 0 01-.211.211H8.939v4.285a.214.214 0 01-.211.211zm-4.777 0H.616a.21.21 0 01-.211-.211v-.662a.21.21 0 01.21-.211H4.15a.353.353 0 00.352-.352v-.48a.353.353 0 00-.352-.352H1.8c-.645 0-1.026-.118-1.313-.405C.21 22.821.1 22.481.1 21.901v-.118c0-.574.111-.92.381-1.19.287-.287.668-.404 1.313-.404h3.165a.21.21 0 01.211.211v.662a.21.21 0 01-.21.211H1.6a.353.353 0 00-.351.352v.451c0 .194.158.352.352.352h2.344c.645 0 1.026.117 1.313.405.27.27.381.615.381 1.19v.146c0 .574-.111.92-.381 1.19-.281.293-.662.416-1.307.416zm17.426-4.918c.48.48.65 1.032.65 2.104v.042c0 1.078-.17 1.629-.65 2.11-.44.445-1.108.668-1.97.668h-2.555a.21.21 0 01-.211-.211V20.4a.21.21 0 01.21-.211h2.556c.862 0 1.524.223 1.97.668zm-.51 2.146v-.042c0-.715-.047-1.06-.328-1.342-.229-.228-.598-.34-1.132-.34h-1.606v3.406h1.606c.534 0 .903-.112 1.132-.34.281-.282.328-.627.328-1.342zm2.837 2.772h-.739a.21.21 0 01-.21-.211v-5.158a.21.21 0 01.21-.211h.739a.21.21 0 01.21.21v5.159a.214.214 0 01-.21.211zm-7.555-.305a.211.211 0 01-.188.305h-.785a.285.285 0 01-.258-.164l-.358-.78h-2.907l-.364.78a.285.285 0 01-.257.164h-.786c-.152 0-.252-.164-.187-.305l2.373-4.953a.75.75 0 01.669-.416.75.75 0 01.668.416l2.38 4.953zm-3.043-3.904l-.978 2.234h1.957l-.979-2.234zm17.438 3.904a.211.211 0 01-.187.305h-.786a.285.285 0 01-.258-.164l-.357-.78h-2.908l-.363.78a.285.285 0 01-.258.164h-.785c-.153 0-.252-.164-.188-.305l2.374-4.953a.75.75 0 01.668-.416.75.75 0 01.668.416l2.38 4.953zm-3.042-3.904l-.979 2.234h1.958l-.979-2.234z" fill-rule="nonzero"/>
</svg>
