<svg viewBox="0 0 147 25" xmlns="http://www.w3.org/2000/svg">
  <path d="M8.444 1.208c.744-.288 1.923-.56 2.84-.674 1.6-.197 3.074-.106 4.674.295 1.218.303 2.969 1.052 2.969 1.271 0 .06-.203.129-.594.182-.41.072-.813.17-1.21.295-.766.257-2.427 1.067-3.434 1.68-.42.257-.834.469-.917.469-.075 0-.496-.212-.924-.47-1.766-1.05-3.72-1.876-4.772-1.997-.293-.03-.473-.083-.473-.143 0-.099 1.014-.598 1.84-.908h.001zM.554 11.21C.921 8.35 2.01 6.118 4.017 4.06c.586-.598.796-.772.962-.772.428 0 1.893.9 3.02 1.87.842.726 1.984 1.845 1.984 1.951 0 .046-.278.394-.608.764-3.825 4.207-6.125 8.3-6.358 11.282-.06.794-.143.802-.638.06C1.628 18.103.99 16.53.71 15.13c-.285-1.453-.33-2.588-.158-3.92h.002zM20 3.508c-.954.461-2.24 1.43-3.48 2.633-.495.476-.9.923-.9.983 0 .06.367.522.818 1.03 3.247 3.639 5.305 7.112 5.944 10.017.083.37.15.878.15 1.135 0 .424.015.477.143.477.173 0 .857-1.06 1.285-2.005.872-1.884 1.18-3.45 1.105-5.614-.075-2.505-.752-4.555-2.142-6.523-.639-.908-2.044-2.353-2.284-2.353-.098 0-.383.099-.639.22zM6.467 15.9c1.338-1.702 3.69-4.154 5.471-5.712.406-.356.774-.62.864-.62.105 0 .782.597 1.999 1.77 4.486 4.32 7.199 7.77 7.207 9.163 0 .272-.046.355-.354.65-1.999 1.937-4.403 3.148-7.048 3.541-3.427.507-7.072-.461-9.581-2.55-.714-.597-1.503-1.407-1.503-1.55 0-.455 1.525-2.891 2.945-4.692zm98.531-12.318c-5.202 0-8.838 3.979-8.838 9.674 0 5.705 3.636 9.683 8.838 9.683 5.197 0 8.82-3.978 8.82-9.683 0-5.695-3.623-9.674-8.82-9.674zm0 17.397c-3.962 0-6.74-3.176-6.74-7.723 0-4.542 2.778-7.718 6.74-7.718 3.957 0 6.717 3.176 6.717 7.718 0 4.547-2.76 7.723-6.717 7.723zm12.758-13.34l10.967 14.87 2.063.002V4.01h-2.061v15.195L117.533 4l-1.835-.003v18.5h2.058V7.639zm28.296-3.64v1.81h-10.876v6.236h10.184v1.81h-10.184v6.846h11.003v1.811H133.1V4h12.952v-.001zm-76.871-.415c-5.2 0-8.835 3.978-8.835 9.674 0 5.704 3.635 9.68 8.835 9.68 5.197 0 8.82-3.976 8.82-9.68 0-5.696-3.623-9.674-8.82-9.674zm0 17.396c-3.962 0-6.737-3.176-6.737-7.722 0-4.543 2.775-7.718 6.737-7.718 3.956 0 6.718 3.175 6.718 7.718 0 4.546-2.762 7.722-6.718 7.722zm15.267-9.777L79.154 4.01H76.72l6.494 8.816-7.112 9.701h2.436l5.91-8.03 5.914 8.03h2.433l-7.115-9.7 6.49-8.817h-2.433l-5.289 7.192v.001zm-27.856 1.553c.407.188.826.443 1.212.772 1.047.897 1.598 2.136 1.598 3.594 0 3.336-2.532 5.405-6.604 5.405h-7.519v-8.675h-3.85a53.22 53.22 0 0 1 1.345-1.858h2.505V4.012h7.519c5.582 0 6.019 3.852 6.019 5.037 0 1.6-.882 2.978-2.225 3.707zm-3.794-6.813h-5.44v6.051h5.44c2.501 0 3.938-1.16 3.938-3.108 0-2.576-2.465-2.942-3.938-2.942v-.001zm-5.44 14.653h5.44c1.693 0 4.53-.459 4.53-3.514 0-2.657-2.467-3.227-4.53-3.227h-5.44V20.596zm-12.667-7.77l-6.49-8.814h2.426l5.29 7.193 5.294-7.193h2.434l-6.495 8.815 7.118 9.7h-2.436l-5.911-8.028-5.909 8.027h-2.438l7.117-9.7z" fill-rule="evenodd"/>
</svg>
