<svg viewBox="0 0 41 20" fill="none" xmlns="http://www.w3.org/2000/svg">
  <path fill-rule="evenodd" clip-rule="evenodd" d="M33.7378 18.5418C34.3296 18.5043 35.0122 18.6126 35.4573 18.4509C35.869 18.6343 36.4041 18.3292 36.8225 18.4059C37.1126 18.4609 37.1184 18.6851 37.3993 18.7251C38.1186 18.1367 38.6362 17.3349 39.288 16.6673C39.2146 16.4114 39.173 16.1197 39.1121 15.8471L38.8529 15.4395C38.7554 15.4395 38.6645 15.4395 38.5745 15.4395C38.5478 15.237 38.5062 15.0386 38.3995 14.8811C38.2286 14.9161 38.1436 14.8878 37.9611 14.8811C37.7685 14.8728 37.5785 14.9294 37.4768 14.8811C37.1609 14.6794 36.8334 14.3593 36.4666 14.0134C36.2424 13.8026 35.6623 13.2683 35.3631 13.2341C35.0714 13.2041 34.7288 13.4108 34.3946 13.5067C34.0645 13.605 33.6794 13.7401 33.3819 13.7826C32.7543 13.8801 32.0091 13.8484 31.3098 13.8792C26.9307 14.0309 22.0814 14.361 17.8023 14.4152C23.1483 11.4663 28.5968 8.17985 33.9603 5.15929C34.3621 4.92842 34.8713 4.56251 35.148 4.52167C35.5456 4.45499 36.0424 4.60169 36.4275 4.65086C36.8609 4.71171 37.2668 4.77005 37.6152 4.88257C38.6795 4.26829 39.8764 3.78737 40.9183 3.14642C40.6799 3.0439 40.5065 2.87804 40.3465 2.6855C40.3532 2.65216 40.3532 2.61715 40.3473 2.57965C40.5357 2.4838 40.7274 2.39711 40.9125 2.31626C40.5941 1.88118 40.004 1.61613 39.4447 1.28941C39.398 1.2344 39.2972 1.18105 39.358 1.09437C38.7729 0.725968 38.2169 0.327561 37.596 0C36.9842 0.216707 36.66 0.429246 36.0432 0.640952C35.9449 0.692629 35.7832 0.523431 35.6465 0.502593C34.7471 1.10354 33.7678 1.53445 32.7818 1.96203C32.0091 2.30543 31.2773 2.7005 30.6697 3.10641C30.448 3.2531 30.198 3.37813 29.9646 3.51982L29.3503 3.98657C21.8247 7.89563 15.6978 10.6561 8.44391 14.1035C8.56477 14.196 8.69479 14.2602 8.77731 14.3918L5.62506 15.5654C4.71572 16.0822 3.21794 16.6606 1.97104 16.2514C1.5818 16.4272 1.20507 16.6206 0.90918 16.8906C1.27508 17.089 1.66682 17.2874 2.07023 17.4899C2.00522 17.5183 1.94354 17.5474 1.8877 17.5816C3.09375 18.1542 4.49485 18.8635 5.76008 19.4119C6.2135 19.6095 6.70526 19.8504 7.12534 19.9579C7.45706 20.0412 7.80546 19.9787 8.14219 19.9579C9.54995 19.8887 10.8894 19.8095 12.238 19.6862C13.0156 19.6161 13.8166 19.4561 14.5742 19.4578C15.8211 19.462 17.0639 19.5011 18.3191 19.5011C19.5843 19.5011 20.8679 19.3319 22.1506 19.2736C24.6728 19.1594 27.2591 19.0269 29.8562 18.8635C31.1748 18.7827 32.4751 18.631 33.7378 18.5418Z" />
</svg>
