<svg viewBox="0 0 20 20" fill="none" xmlns="http://www.w3.org/2000/svg">
  <path fill-rule="evenodd" clip-rule="evenodd" d="M17.1619 18.1L15.8812 16.98L14.5264 15.7896L15.0878 17.64H3.08784C1.89155 17.64 0.918213 16.72 0.918213 15.58V2.06C0.918213 0.92 1.89155 0 3.08784 0H17.2671C18.4634 0 19.4367 0.92 19.4367 2.06V20L17.1619 18.1ZM14.8967 5.71037C13.373 4.62963 11.9234 4.66 11.9234 4.66L11.7752 4.82C13.5745 5.34 14.4101 6.08963 14.4101 6.08963C13.3101 5.52 12.2301 5.24 11.2249 5.12963C10.4634 5.05037 9.73303 5.07037 9.08784 5.14963C9.02414 5.14963 8.97081 5.16 8.90784 5.17037C8.53747 5.2 7.63747 5.33037 6.50562 5.8C6.11377 5.96963 5.88118 6.08963 5.88118 6.08963C5.88118 6.08963 6.75969 5.3 8.66414 4.78L8.55821 4.66C8.55821 4.66 7.10858 4.62963 5.58488 5.71037C5.58488 5.71037 4.06118 8.32 4.06118 11.54C4.06118 11.54 4.95006 12.9896 7.28858 13.06C7.28858 13.06 7.68044 12.6096 7.99747 12.2304C6.65377 11.8504 6.14562 11.0496 6.14562 11.0496C6.14562 11.0496 6.25155 11.12 6.44192 11.22C6.45229 11.2304 6.4634 11.24 6.48414 11.2504C6.51599 11.2696 6.54784 11.28 6.57969 11.3C6.84414 11.44 7.10858 11.5496 7.35229 11.64C7.78562 11.8 8.30414 11.96 8.90784 12.0704C9.70118 12.2104 10.6323 12.26 11.6486 12.08C12.1456 12 12.6538 11.86 13.1827 11.6496C13.553 11.52 13.9656 11.3296 14.3997 11.06C14.3997 11.06 13.8708 11.88 12.4841 12.2496C12.8019 12.6296 13.1827 13.06 13.1827 13.06C15.5212 12.9896 16.4212 11.54 16.4212 11.54C16.4212 8.32 14.8967 5.71037 14.8967 5.71037ZM12.1249 10.6104C11.5323 10.6104 11.0449 10.1096 11.0449 9.5C11.0449 8.88963 11.5212 8.38963 12.1249 8.38963C12.7278 8.38963 13.2041 8.88963 13.2041 9.5C13.2041 10.1096 12.7278 10.6104 12.1249 10.6104ZM8.26192 10.6104C7.66932 10.6104 7.18266 10.1096 7.18266 9.5C7.18266 8.88963 7.65895 8.38963 8.26192 8.38963C8.86562 8.38963 9.35229 8.88963 9.34118 9.5C9.34118 10.1096 8.86562 10.6104 8.26192 10.6104Z" />
</svg>
