<svg viewBox="0 0 21 20" fill="none" xmlns="http://www.w3.org/2000/svg">
  <path fill-rule="evenodd" clip-rule="evenodd" d="M10.047 0C7.332 0 6.991.012 5.924.06 4.859.108 4.132.278 3.496.525a4.902 4.902 0 00-1.77 1.153A4.901 4.901 0 00.571 3.45C.325 4.085.156 4.812.107 5.877.059 6.944.047 7.285.047 10c0 2.715.012 3.056.06 4.123.048 1.065.218 1.792.465 2.427a4.91 4.91 0 001.153 1.771 4.9 4.9 0 001.771 1.154c.636.246 1.363.416 2.428.465 1.067.048 1.408.06 4.123.06 2.715 0 3.056-.012 4.123-.06 1.065-.049 1.792-.218 2.427-.465a4.9 4.9 0 001.771-1.154c.51-.499.903-1.104 1.154-1.771.247-.635.416-1.362.465-2.427.049-1.067.06-1.408.06-4.123 0-2.715-.012-3.056-.06-4.123-.048-1.065-.218-1.792-.465-2.427a4.9 4.9 0 00-1.153-1.772A4.9 4.9 0 0016.597.525C15.962.278 15.235.109 14.17.06 13.103.012 12.762 0 10.047 0zm0 1.802c2.67 0 2.986.01 4.04.058.975.045 1.505.208 1.858.345.467.181.8.397 1.15.747.35.35.566.683.747 1.15.137.353.3.882.345 1.857.048 1.054.058 1.371.058 4.041 0 2.67-.01 2.986-.058 4.04-.045.976-.208 1.505-.345 1.858a3.1 3.1 0 01-.747 1.15 3.1 3.1 0 01-1.15.747c-.353.137-.883.3-1.857.345-1.054.048-1.371.058-4.041.058-2.67 0-2.987-.01-4.04-.058-.976-.045-1.505-.208-1.858-.345A3.099 3.099 0 013 17.048a3.1 3.1 0 01-.747-1.15c-.137-.353-.3-.882-.345-1.857-.048-1.054-.058-1.371-.058-4.041 0-2.67.01-2.986.058-4.04.045-.976.208-1.505.345-1.858.181-.467.397-.8.747-1.15a3.098 3.098 0 011.15-.747c.353-.137.882-.3 1.857-.345 1.054-.048 1.371-.058 4.041-.058zm0 2.813a5.385 5.385 0 100 10.769 5.385 5.385 0 000-10.77zm0 8.846a3.462 3.462 0 110-6.924 3.462 3.462 0 010 6.924zm6.692-8.77a1.23 1.23 0 11-2.46.001 1.23 1.23 0 012.46 0z" />
</svg>
