<svg viewBox="0 0 13 20" fill="none" xmlns="http://www.w3.org/2000/svg">
  <path fill-rule="evenodd" clip-rule="evenodd" d="M9.87093 16.745C9.28093 16.745 8.76593 16.61 8.3251 16.3408C7.98177 16.1417 7.7526 15.8808 7.63843 15.56C7.5151 15.2475 7.45343 14.5008 7.45343 13.32V8.19H12.2626V5.05167H7.45343V0H4.55927C4.42677 1.02417 4.18927 1.875 3.84593 2.5525C3.5026 3.22083 3.04843 3.79333 2.4851 4.27083C1.92093 4.74 1.23843 5.10417 0.436768 5.365V8.19H2.6826V15.2083C2.6826 16.1367 2.7801 16.8358 2.97343 17.305C3.15843 17.7733 3.50677 18.2292 4.0176 18.6717C4.54593 19.1058 5.15427 19.4317 5.84093 19.6483C6.55427 19.8825 7.37343 20 8.29843 20C9.14427 20 9.90593 19.9175 10.5843 19.7525C11.2543 19.605 12.0384 19.3225 12.9368 18.9058V15.755C11.9234 16.415 10.9018 16.745 9.87093 16.745Z" />
</svg>
