<svg viewBox="0 0 26 20" fill="none" xmlns="http://www.w3.org/2000/svg">
  <path d="M25.047 2.376c-.905.39-1.89.671-2.905.78a5.032 5.032 0 002.219-2.78c-.989.588-2.072 1-3.201 1.219A5.031 5.031 0 0017.474 0a5.043 5.043 0 00-5.044 5.047c0 .39.047.781.124 1.157a14.335 14.335 0 01-10.4-5.28 5.01 5.01 0 00-.687 2.546c0 1.752.89 3.296 2.248 4.205a5.088 5.088 0 01-2.28-.642v.062a5.046 5.046 0 004.043 4.952 5.34 5.34 0 01-1.328.172c-.328 0-.639-.033-.952-.077.639 2 2.5 3.453 4.715 3.5a10.11 10.11 0 01-6.263 2.157c-.423 0-.813-.015-1.218-.062A14.283 14.283 0 008.179 20c9.277 0 14.353-7.686 14.353-14.358 0-.219 0-.438-.014-.657a10.864 10.864 0 002.529-2.61z" />
</svg>
