<svg viewBox="0 0 30 20" fill="none" xmlns="http://www.w3.org/2000/svg">
  <path d="M28.8763 3.1242C28.7138 2.51923 28.3953 1.96753 27.9527 1.52432C27.51 1.08111 26.9587 0.761928 26.354 0.598726C24.1278 1.21487e-07 15.2043 0 15.2043 0C15.2043 0 6.28072 -1.21487e-07 4.0546 0.595541C3.44957 0.758213 2.89799 1.07721 2.45526 1.52051C2.01252 1.9638 1.69422 2.51578 1.53231 3.12102C0.936767 5.35032 0.936768 10 0.936768 10C0.936768 10 0.936767 14.6497 1.53231 16.8758C1.86033 18.1051 2.82849 19.0732 4.0546 19.4013C6.28072 20 15.2043 20 15.2043 20C15.2043 20 24.1278 20 26.354 19.4013C27.5833 19.0732 28.5482 18.1051 28.8763 16.8758C29.4718 14.6497 29.4718 10 29.4718 10C29.4718 10 29.4718 5.35032 28.8763 3.1242ZM12.3699 14.2675V5.73248L19.7584 9.96815L12.3699 14.2675Z" />
</svg>
