<svg width="81" height="58" fill="none" xmlns="http://www.w3.org/2000/svg"><path d="M80.487 28.543c0-.195 0-.417-.008-.674-.01-.717-.027-1.524-.045-2.383a132.536 132.536 0 00-.393-7.258c-.268-3.199-.66-5.866-1.196-7.869a12.342 12.342 0 00-3.213-5.528 12.474 12.474 0 00-5.56-3.2C67.544.957 62.6.54 55.637.284A422.844 422.844 0 0045.24.035C43.999.018 42.847.01 41.812 0h-2.624C38.153.009 37 .018 35.76.035 32.217.08 28.673.16 25.362.284 18.4.549 13.446.966 10.929 1.63A12.46 12.46 0 005.366 4.83a12.328 12.328 0 00-3.211 5.53c-.545 2.002-.928 4.67-1.196 7.868a132.474 132.474 0 00-.393 7.258c-.027.86-.036 1.666-.045 2.383 0 .257-.008.479-.008.674v.496c0 .195 0 .417.008.673.01.718.027 1.525.045 2.384.072 2.473.196 4.936.393 7.258.268 3.199.66 5.866 1.196 7.869a12.393 12.393 0 008.774 8.728c2.517.674 7.47 1.09 14.433 1.347 3.311.124 6.855.204 10.398.248 1.241.018 2.393.027 3.428.036h2.624c1.035-.009 2.187-.018 3.428-.035 3.543-.045 7.087-.125 10.398-.249 6.962-.266 11.916-.682 14.433-1.347a12.378 12.378 0 008.774-8.728c.545-2.003.928-4.67 1.196-7.87.197-2.32.322-4.784.393-7.257.027-.86.036-1.666.044-2.383 0-.257.01-.479.01-.674v-.496zm-6.426.46c0 .187 0 .39-.009.63-.009.691-.027 1.453-.045 2.277a118.93 118.93 0 01-.375 6.903c-.24 2.854-.58 5.193-1 6.762a5.984 5.984 0 01-4.23 4.209c-1.874.496-6.596.895-13.014 1.134-3.249.124-6.748.204-10.238.248-1.222.018-2.356.027-3.374.027h-2.552l-3.374-.027c-3.49-.044-6.98-.124-10.238-.248-6.418-.248-11.148-.638-13.014-1.134a6 6 0 01-4.23-4.21c-.42-1.568-.76-3.907-1-6.76a127.448 127.448 0 01-.375-6.904c-.027-.824-.036-1.595-.045-2.277 0-.24-.009-.452-.009-.63v-.425c0-.186 0-.39.01-.629.008-.691.026-1.453.044-2.277.062-2.357.187-4.715.375-6.903.24-2.854.58-5.193 1-6.762a5.984 5.984 0 014.23-4.209c1.874-.496 6.596-.895 13.014-1.134 3.249-.124 6.748-.204 10.238-.248 1.222-.018 2.356-.027 3.374-.027h2.552l3.374.027c3.49.044 6.98.124 10.238.248 6.418.248 11.149.638 13.014 1.134a6 6 0 014.23 4.21c.42 1.568.76 3.907 1 6.76.188 2.19.304 4.547.375 6.904.027.824.036 1.595.045 2.277 0 .24.009.452.009.63v.425zM32.556 40.666l20.708-11.963-20.708-11.785v23.748z" fill="#fff"/></svg>
